<svg width="28" height="28" viewBox="0 0 28 28" fill="none" xmlns="http://www.w3.org/2000/svg">
<path d="M26.3108 12.1427C27.1623 12.6863 27.5887 12.9575 27.8599 12.7486C28.1311 12.541 27.976 12.0487 27.6657 11.0641L25.7061 4.84642C25.4055 3.89483 25.2565 3.41965 24.9181 3.08128C24.5796 2.74291 24.1044 2.59266 23.1527 2.29338L16.9354 0.334005C15.9508 0.0237313 15.4584 -0.131406 15.2507 0.139779C15.0418 0.410963 15.3143 0.837285 15.8567 1.68871C18.5359 5.88962 22.1106 9.46266 26.3108 12.1415V12.1427Z" fill="#F9F8F6"/>
<path d="M1.68892 12.1427C0.837389 12.6863 0.411014 12.9575 0.139796 12.7486C-0.131422 12.541 0.0237342 12.0487 0.334047 11.0641L2.29366 4.84642C2.59298 3.89483 2.74325 3.41965 3.08166 3.08128C3.42007 2.74291 3.89531 2.59266 4.84702 2.29338L11.0643 0.334005C12.049 0.0237313 12.5413 -0.131406 12.749 0.139779C12.9579 0.410963 12.6855 0.837285 12.143 1.68871C9.46384 5.88962 5.88913 9.46266 1.68892 12.1415V12.1427Z" fill="#F9F8F6"/>
<path d="M1.68892 15.857C0.837389 15.3134 0.411014 15.0422 0.139796 15.2511C-0.131422 15.4588 0.0237342 15.951 0.334047 16.9356L2.29366 23.1533C2.59298 24.1049 2.74325 24.5801 3.08166 24.9185C3.42007 25.2568 3.89531 25.4071 4.84702 25.7064L11.0655 27.6657C12.0502 27.976 12.5425 28.1311 12.7502 27.86C12.9591 27.5888 12.6867 27.1624 12.1443 26.311C9.46506 22.1101 5.89035 18.5371 1.69014 15.8582L1.68892 15.857Z" fill="#F9F8F6"/>
<path d="M26.3111 15.857C27.1626 15.3134 27.589 15.0422 27.8602 15.2511C28.1314 15.4588 27.9763 15.951 27.666 16.9356L25.7063 23.1533C25.4058 24.1049 25.2568 24.5801 24.9183 24.9185C24.5799 25.2568 24.1047 25.4071 23.153 25.7064L16.9345 27.6657C15.9498 27.976 15.4575 28.1311 15.2498 27.86C15.0409 27.5888 15.3133 27.1624 15.8557 26.311C18.5349 22.1101 22.1096 18.5371 26.3099 15.8582L26.3111 15.857Z" fill="#F9F8F6"/>
</svg>
